<?xml version="1.0" standalone="no"?>
<!DOCTYPE svg PUBLIC "-//W3C//DTD SVG 20010904//EN"
 "http://www.w3.org/TR/2001/REC-SVG-20010904/DTD/svg10.dtd">
<svg version="1.0" xmlns="http://www.w3.org/2000/svg"
 width="120.000000pt" height="120.000000pt" viewBox="0 0 120.000000 120.000000"
 preserveAspectRatio="xMidYMid meet">

<g transform="translate(0.000000,120.000000) scale(0.100000,-0.100000)"
fill="#000000" stroke="none">
<path d="M535 1194 c-11 -2 -45 -9 -75 -15 -204 -40 -390 -225 -441 -439 -17
-71 -17 -209 0 -280 51 -213 228 -390 441 -441 30 -7 93 -13 140 -13 170 0
301 54 421 173 119 120 173 251 173 421 0 104 -15 172 -61 269 -68 144 -228
272 -385 310 -54 13 -183 22 -213 15z m187 -35 c100 -21 196 -75 279 -158 229
-229 229 -573 0 -802 -229 -229 -573 -229 -802 0 -116 116 -169 242 -169 401
0 38 5 93 11 122 41 199 222 385 422 434 66 16 190 17 259 3z"/>
<path d="M402 805 c-22 -18 -32 -37 -37 -71 -4 -28 -2 -51 3 -56 7 -7 7 -19 1
-35 -5 -13 -7 -65 -4 -116 4 -89 5 -93 37 -119 24 -21 43 -28 75 -28 23 0 45
4 48 10 3 5 19 7 35 3 l30 -5 0 141 c0 163 -6 184 -53 179 -24 -2 -33 1 -35
15 -4 18 22 24 33 7 3 -5 17 -10 30 -10 13 0 27 -5 30 -10 4 -6 6 -80 6 -165
-1 -100 2 -155 9 -155 6 0 10 32 10 80 0 47 4 80 10 80 6 0 10 -35 10 -85 l0
-85 56 0 c50 0 59 3 90 34 l34 34 0 151 c0 204 -16 231 -130 231 l-50 0 0 -53
c0 -62 11 -77 57 -77 23 0 33 -5 33 -15 0 -8 4 -15 9 -15 17 0 23 20 11 35
-10 12 -9 15 3 15 23 0 27 -37 6 -56 -17 -15 -20 -15 -45 5 -15 12 -37 21 -50
21 -31 0 -44 27 -44 89 l0 51 -94 0 c-86 0 -97 -2 -124 -25z m92 -114 c-5 -6
-34 20 -34 30 0 5 8 1 18 -8 10 -10 17 -20 16 -22z m-18 -90 c5 -5 18 -11 29
-14 11 -3 1 -5 -21 -6 -29 -1 -44 4 -48 14 -6 17 23 21 40 6z m272 -18 c-10
-2 -18 -11 -18 -20 0 -11 -6 -14 -22 -9 -13 3 -32 6 -42 6 -27 0 -9 17 24 23
34 6 80 6 58 0z"/>
</g>
</svg>
