<?xml version="1.0" encoding="utf-8"?>
<!-- Generator: Adobe Illustrator 27.0.0, SVG Export Plug-In . SVG Version: 6.00 Build 0)  -->
<svg version="1.1" id="Layer_1" xmlns="http://www.w3.org/2000/svg" xmlns:xlink="http://www.w3.org/1999/xlink" x="0px" y="0px"
	 viewBox="0 0 74 71" style="enable-background:new 0 0 74 71;" xml:space="preserve">
<style type="text/css">
	.st0{fill:none;stroke:#274182;stroke-miterlimit:10;}
	.st1{display:none;fill:#274182;}
	.st2{fill:#274182;}
</style>
<circle class="st0" cx="37.6" cy="35.6" r="34.8"/>
<path class="st1" d="M31,11v8h-2.6v13.6l-2.6,2.6v11.5h2.6v2.6h7.9V54h1.3v-4.6h7.9v-2.6h2.6V35.2l-2.6-2.6V19H43v-8H31z M27.1,45.4
	v-9.7l1.3-1.3v11H27.1z M46.9,35.8v9.7h-1.3v-11L46.9,35.8z M44.3,20.3v11v15.5v1.3H29.7v-1.3V31.3v-11H31h12H44.3z M32.4,19v-6.6
	h9.3V19H32.4z"/>
<path class="st1" d="M31,54c0,1.6,0.6,3.1,1.7,4.2c1.2,1.2,2.7,1.7,4.2,1.7s3.1-0.6,4.2-1.7c1.1-1.1,1.7-2.6,1.7-4.2
	s-0.6-3.1-1.7-4.2l-0.9,0.9c0.9,0.9,1.4,2,1.4,3.3c0,1.2-0.5,2.4-1.4,3.3c-1.8,1.8-4.7,1.8-6.6,0c-0.9-0.9-1.4-2-1.4-3.3
	c0-1.2,0.5-2.4,1.4-3.3l-0.9-0.9C31.7,50.9,31,52.4,31,54z"/>
<path class="st1" d="M34.7,51.7c-0.6,0.6-1,1.5-1,2.3s0.3,1.7,1,2.3c0.6,0.6,1.5,1,2.3,1s1.7-0.3,2.3-1c0.6-0.6,1-1.5,1-2.3
	s-0.3-1.7-1-2.3l-0.9,0.9C38.8,53,39,53.5,39,54s-0.2,1-0.6,1.4c-0.7,0.7-2.1,0.7-2.8,0C35.2,55.1,35,54.6,35,54
	c0-0.5,0.2-1,0.6-1.4L34.7,51.7z"/>
<path class="st1" d="M33.7,13.7h2.6v4h-2.6V13.7z"/>
<path class="st1" d="M37.7,13.7h2.6v4h-2.6V13.7z"/>
<g>
	<path class="st2" d="M53.8,38.6c0-1.1-0.9-1.9-1.9-1.9c-1.1,0-1.9,0.8-1.9,1.9c0,1.1,0.9,1.9,1.9,1.9
		C52.9,40.5,53.8,39.7,53.8,38.6z"/>
	<path class="st2" d="M53.8,27c0-1.1-0.9-1.9-1.9-1.9c-1.1,0-1.9,0.8-1.9,1.9s0.9,1.9,1.9,1.9C52.9,28.9,53.8,28.1,53.8,27z"/>
	<path class="st2" d="M25.8,24.4c0,1.1,0.9,1.9,1.9,1.9c1,0,1.9-0.8,1.9-1.9c0-1.1-0.9-1.9-1.9-1.9C26.7,22.6,25.8,23.4,25.8,24.4z"
		/>
	<path class="st2" d="M49.2,13.9H42v10c0,1.6,1.3,3,3,3h3.3c0.3-1.7,1.8-3,3.6-3c1.8,0,3.6,1.6,3.6,3.6s-1.6,3.6-3.6,3.6
		c-2,0-3-1.1-3.4-2.7h-3.4c-2.5,0-4.5-2.1-4.5-4.5v-9.9H26c-5.6,0-10.1,4.5-10.1,10.1v6.1h15.4c2.5,0,4.5,2.1,4.5,4.5v22.6h1.5V28.5
		c0-1.6-1.3-3-3-3h-3.1c-0.2,1.8-1.7,3.2-3.6,3.2c-1.9,0-3.6-1.6-3.6-3.6s1.6-3.6,3.6-3.6s3,1.1,3.4,2.5h3.3c2.5,0,4.5,2.1,4.5,4.5
		v28.8h1.6V42.7c0-2.5,2.1-4.5,4.5-4.5h3.4c0.4-1.5,1.8-2.6,3.4-2.6c1.6,0,3.6,1.6,3.6,3.6c0,2-1.6,3.6-3.6,3.6c-2,0-3.3-1.3-3.6-3
		h-3.3c-1.6,0-3,1.3-3,3v14.5h7.4c5.6,0,10.1-4.5,10.1-10.1V24C59.3,18.5,54.7,13.9,49.2,13.9z"/>
	<g>
		<path class="st2" d="M31.4,31H15.9v15.6c0,5.6,4.5,10.1,10.1,10.1h5.3V40c0-1.6-1.3-3-3-3h-3.1c-0.3,1.6-1.8,2.9-3.5,2.9
			c-1.7,0-3.6-1.6-3.6-3.6c0-2,1.6-3.6,3.6-3.6s3.2,1.2,3.5,2.9h3.1c2.5,0,4.5,2.1,4.5,4.5v16.6h1.6V34C34.3,32.4,33,31,31.4,31
			L31.4,31z"/>
		<path class="st2" d="M19.7,36.3c0,1.1,0.9,1.9,1.9,1.9c1.1,0,1.9-0.8,1.9-1.9c0-1.1-0.9-1.9-1.9-1.9
			C20.6,34.4,19.7,35.3,19.7,36.3z"/>
	</g>
</g>
</svg>
