<?xml version="1.0" encoding="utf-8"?>
<!-- Generator: Adobe Illustrator 27.2.0, SVG Export Plug-In . SVG Version: 6.00 Build 0)  -->
<svg version="1.1" id="Layer_1" xmlns="http://www.w3.org/2000/svg" xmlns:xlink="http://www.w3.org/1999/xlink" x="0px" y="0px"
	 viewBox="0 0 74 71" style="enable-background:new 0 0 74 71;" xml:space="preserve">
<style type="text/css">
	.st0{fill:none;stroke:#274182;stroke-miterlimit:10;}
</style>
<circle class="st0" cx="37.5" cy="35.6" r="34.8"/>
<path d="M31,11V19h-2.6v13.6l-2.6,2.6v11.5h2.6v2.6h7.9V54h1.3v-4.6h7.9v-2.6h2.6V35.2l-2.6-2.6V19H43V11L31,11z M27.1,45.4v-9.7
	l1.3-1.3v11H27.1z M46.9,35.8v9.7h-1.3v-11L46.9,35.8z M44.3,20.3v11v15.5v1.3H29.7v-1.3V31.3v-11H31H43L44.3,20.3z M32.4,19v-6.6
	h9.3V19H32.4z"/>
<path d="M31,54c0,1.6,0.6,3.1,1.7,4.2c1.2,1.2,2.7,1.7,4.2,1.7s3.1-0.6,4.2-1.7c1.1-1.1,1.7-2.6,1.7-4.2s-0.6-3.1-1.7-4.2l-0.9,0.9
	c0.9,0.9,1.4,2,1.4,3.3c0,1.2-0.5,2.4-1.4,3.3c-1.8,1.8-4.7,1.8-6.6,0c-0.9-0.9-1.4-2-1.4-3.3c0-1.2,0.5-2.4,1.4-3.3l-0.9-0.9
	C31.7,50.9,31,52.4,31,54z"/>
<path d="M34.7,51.7c-0.6,0.6-1,1.5-1,2.3s0.3,1.7,1,2.3c0.6,0.6,1.5,1,2.3,1s1.7-0.3,2.3-1c0.6-0.6,1-1.5,1-2.3s-0.3-1.7-1-2.3
	l-0.9,0.9C38.8,53,39,53.5,39,54c0,0.5-0.2,1-0.6,1.4c-0.7,0.7-2.1,0.7-2.8,0C35.2,55.1,35,54.6,35,54c0-0.5,0.2-1,0.6-1.4
	L34.7,51.7z"/>
<path d="M33.7,13.7h2.6v4h-2.6V13.7z"/>
<path d="M37.7,13.7h2.6v4h-2.6V13.7z"/>
</svg>
