<?xml version="1.0" encoding="utf-8"?>
<!-- Generator: Adobe Illustrator 27.2.0, SVG Export Plug-In . SVG Version: 6.00 Build 0)  -->
<svg version="1.1" id="Layer_1" xmlns="http://www.w3.org/2000/svg" xmlns:xlink="http://www.w3.org/1999/xlink" x="0px" y="0px"
	 viewBox="0 0 74 71" style="enable-background:new 0 0 74 71;" xml:space="preserve">
<style type="text/css">
	.st0{fill:none;stroke:#FF943D;stroke-miterlimit:10;}
</style>
<circle class="st0" cx="37.5" cy="35.6" r="34.8"/>
<g id="Circuit">
	<circle cx="26.8" cy="35.6" r="2.2"/>
	<circle cx="32.7" cy="23.5" r="2.2"/>
	<path d="M50.2,48.9v5.6h2.5c2,0,3.6-1.6,3.6-3.6v-2H50.2z"/>
	<circle cx="41.9" cy="38.6" r="2.2"/>
	<path d="M38.1,26.5c0.1,0.1,0.3,0.1,0.4,0.1h17.9v-3.6H42.7c-0.8,0-1.5-0.7-1.5-1.5v-4.9H24.6c0,2.6,0,6.1,0,7.3
		c0,0.2,0.1,0.3,0.2,0.5l2.2,2.5c0.4,0.4,0.5,0.9,0.5,1.4v3.7c2,0.4,3.2,2.3,2.8,4.3c-0.4,2-2.3,3.2-4.3,2.8s-3.2-2.3-2.8-4.3
		c0.3-1.4,1.4-2.5,2.8-2.8v-3.7c0-0.2-0.1-0.3-0.2-0.5l-2.2-2.5c-0.4-0.4-0.6-0.9-0.6-1.4c0-1.2,0-4.7,0-7.3h-1
		c-2,0-3.6,1.6-3.6,3.6v30.6c0,2,1.6,3.6,3.6,3.6H24V43.9c0-0.8,0.7-1.5,1.5-1.5c0,0,0,0,0,0h3.9l4.2-4.2v-2.9c0-0.4,0.2-0.8,0.4-1
		l3.4-3.4c0.3-0.3,0.6-0.4,1-0.4h18v-2.4H38.5c-0.5,0-0.9-0.1-1.3-0.4l-2-1.5c-0.7,0.6-1.5,0.9-2.4,0.9c-2,0-3.6-1.6-3.6-3.6
		s1.6-3.6,3.6-3.6s3.6,1.6,3.6,3.6c0,0.5-0.1,1.1-0.3,1.5L38.1,26.5z"/>
	<path d="M52.8,16.7h-10v4.9h13.7v-1.3C56.4,18.3,54.8,16.7,52.8,16.7z"/>
	<path d="M38.4,32L35,35.4v2.9c0,0.4-0.2,0.8-0.4,1l-4.2,4.2c-0.3,0.3-0.6,0.4-1,0.4h-3.9v10.7h5.7v-5.3c0-0.8,0.3-1.5,0.9-2.1
		l6.8-6.8c-1-1.7-0.5-4,1.3-5c1.7-1,4-0.5,5,1.3c1,1.7,0.5,4-1.3,5c-1.3,0.8-2.9,0.7-4-0.2L33,48.2c-0.3,0.3-0.4,0.6-0.4,1v5.3h6.3
		v-7c0-0.8,0.6-1.5,1.4-1.5c0,0,0,0,0,0h3.9l4.2-4.2v-2.9c0-0.4,0.2-0.8,0.4-1l3.4-3.4c0.3-0.3,0.6-0.4,1-0.4h3.1V32H38.4z"/>
	<path d="M53.3,35.7l-3.4,3.4v2.9c0,0.4-0.2,0.8-0.4,1l-4.2,4.2c-0.3,0.3-0.6,0.4-1,0.4h-3.9v7h8.5v-5.6c0-0.8,0.7-1.5,1.5-1.5h6.2
		V35.7H53.3z"/>
</g>
</svg>
