<?xml version="1.0" encoding="utf-8"?>
<!-- Generator: Adobe Illustrator 27.0.0, SVG Export Plug-In . SVG Version: 6.00 Build 0)  -->
<svg version="1.1" id="Layer_1" xmlns="http://www.w3.org/2000/svg" xmlns:xlink="http://www.w3.org/1999/xlink" x="0px" y="0px"
	 viewBox="0 0 74 71" style="enable-background:new 0 0 74 71;" xml:space="preserve">
<style type="text/css">
	.st0{fill:none;stroke:#274182;stroke-miterlimit:10;}
	.st1{fill:#B1B1B1;}
	.st2{fill:#B3B3B2;}
	.st3{fill:url(#SVGID_1_);}
	.st4{fill:#DBDBDB;}
</style>
<circle class="st0" cx="37.2" cy="35.6" r="34.8"/>
<path class="st1" d="M62.1,40.9c0,6.3-5.1,11.4-11.4,11.4h-2.9c-0.9,0-1.6-0.7-1.6-1.6c0-0.9,0.7-1.6,1.6-1.6h2.9
	c4.5,0,8.2-3.7,8.2-8.2s-3.7-8.2-8.2-8.2h-1.6c-0.9,0-1.6-0.7-1.6-1.6c0-6.3-5.1-11.4-11.4-11.4s-11.4,5.1-11.4,11.4
	s-0.7,1.6-1.6,1.6h-1.6c-4.5,0-8.2,3.7-8.2,8.2s3.7,8.2,8.2,8.2h1.4c0.9,0,1.6,0.7,1.6,1.6c0,0.9-0.7,1.6-1.6,1.6h-1.4
	c-6.3,0-11.4-5.1-11.4-11.4S15,29.5,21.3,29.5h0.1c0.8-7.3,7.1-13.1,14.6-13.1s13.8,5.7,14.6,13.1h0.1C57,29.5,62.1,34.6,62.1,40.9
	L62.1,40.9z"/>
<g>
	<path class="st2" d="M46.1,40.3c-0.2,0-0.3,0-0.5,0.1l-2.6-4.5l-1.2,0.7l2.6,4.5c-0.3,0.4-0.5,0.9-0.5,1.5c0,0.6,0.2,1.1,0.5,1.5
		l-2.6,4.5l1.2,0.7l2.6-4.5c0.2,0,0.3,0.1,0.5,0.1c1.2,0,2.2-1,2.2-2.2C48.3,41.3,47.4,40.3,46.1,40.3L46.1,40.3z"/>
	<path class="st2" d="M25.9,40.3c0.2,0,0.3,0,0.5,0.1l2.6-4.5l1.2,0.7l-2.6,4.5c0.3,0.4,0.5,0.9,0.5,1.5c0,0.6-0.2,1.1-0.5,1.5
		l2.6,4.5l-1.2,0.7l-2.6-4.5c-0.2,0-0.3,0.1-0.5,0.1c-1.2,0-2.2-1-2.2-2.2C23.7,41.3,24.6,40.3,25.9,40.3L25.9,40.3z"/>
	
		<linearGradient id="SVGID_1_" gradientUnits="userSpaceOnUse" x1="28.8273" y1="29.3941" x2="43.3383" y2="29.3941" gradientTransform="matrix(1 0 0 -1 0 72)">
		<stop  offset="0" style="stop-color:#79CBC2"/>
		<stop  offset="0.1" style="stop-color:#72C0BC"/>
		<stop  offset="0.4" style="stop-color:#61A3AF"/>
		<stop  offset="0.7" style="stop-color:#457499"/>
		<stop  offset="1" style="stop-color:#274182"/>
	</linearGradient>
	<path class="st3" d="M41.2,49.2c-1,0-1.9,0.7-2.1,1.6h-5.9c-0.1-0.4-0.3-0.7-0.5-1l8-13.9c0.2,0,0.3,0.1,0.5,0.1
		c1.2,0,2.2-1,2.2-2.2c0-1.2-1-2.2-2.2-2.2s-1.9,0.7-2.1,1.6h-5.9c-0.2-0.9-1.1-1.6-2.1-1.6c-1,0-2.2,1-2.2,2.2c0,1.2,1,2.2,2.2,2.2
		s1.9-0.7,2.1-1.6h5.9c0.1,0.3,0.3,0.6,0.5,0.9l-8.1,14c-0.1,0-0.3,0-0.4,0c-1.2,0-2.2,1-2.2,2.2c0,1.2,1,2.2,2.2,2.2
		s1.9-0.7,2.1-1.6H39c0.2,0.9,1.1,1.6,2.1,1.6s2.2-1,2.2-2.2C43.4,50.2,42.4,49.2,41.2,49.2L41.2,49.2z"/>
	<path class="st4" d="M39.8,48.7c0,0-0.4,0.1-1.1,1h-5l7.2-12.3l-5,11.2L39.8,48.7L39.8,48.7z"/>
	<path class="st1" d="M32.3,36.4c0,0,0.4-0.1,1.1-1h5l-7.2,12.3l5-11.2L32.3,36.4L32.3,36.4z"/>
	<path class="st4" d="M32.3,36.4c0,0,0.4-0.1,1.1-1h5l-7.2,12.3l5-11.2L32.3,36.4L32.3,36.4z"/>
</g>
</svg>
